<svg xmlns="http://www.w3.org/2000/svg" width="1024" height="1024" viewBox="0 0 1024 1024">
<g>
<path d="M 521.88 802.89 C506.48,806.36 492.29,802.55 485.13,793.02 C484.15,791.71 483.44,790.91 482.96,789.98 C481.74,787.64 482.01,784.53 483.19,770.63 C483.32,769.13 483.46,767.51 483.61,765.75 L 484.26 758.00 L 490.94 758.00 C497.90,758.00 508.94,754.98 510.98,752.52 C511.79,751.54 511.79,749.45 510.96,744.68 L 509.83 738.18 L 505.66 740.07 C500.86,742.24 496.92,742.52 495.20,740.80 C493.90,739.50 493.77,727.84 494.87,710.50 L 495.50 700.50 L 504.00 699.00 L 512.50 697.50 L 512.80 690.16 L 513.09 682.82 L 510.30 683.38 C508.76,683.68 505.70,684.21 503.50,684.55 C501.30,684.89 498.68,685.40 497.67,685.68 C496.17,686.09 495.91,685.68 496.17,683.34 C496.48,680.67 497.27,680.22 508.98,676.01 C515.84,673.54 520.71,671.37 519.79,671.20 C518.87,671.02 516.40,671.38 514.31,672.01 C507.56,674.01 499.55,675.93 497.75,675.96 C496.52,675.99 496.00,675.22 496.00,673.41 C496.00,670.93 495.83,670.85 491.75,671.49 C489.41,671.85 486.71,672.37 485.75,672.64 C484.13,673.10 484.00,671.71 484.00,653.28 C484.00,618.16 481.22,613.22 448.00,589.44 C425.68,573.46 420.99,570.08 410.50,562.50 C405.55,558.93 399.25,554.43 396.50,552.52 C365.30,530.80 354.06,517.73 346.77,494.67 L 344.50 487.50 L 344.50 270.50 L 346.80 262.57 C355.64,232.05 382.13,207.09 411.69,201.43 C422.64,199.34 600.23,199.31 611.16,201.40 C637.83,206.51 661.77,226.75 672.54,253.29 C673.62,255.97 674.53,258.11 675.28,260.31 C679.10,271.40 679.06,283.82 678.78,372.41 C678.77,375.51 678.76,378.71 678.75,382.00 C678.72,389.81 678.70,397.06 678.68,403.79 C678.48,478.69 678.45,489.78 674.50,499.23 C673.46,501.72 672.14,504.10 670.48,507.50 C662.95,522.93 654.28,532.84 639.26,543.20 C635.83,545.56 619.41,557.36 602.76,569.41 C586.12,581.45 569.58,593.38 566.00,595.91 C548.17,608.51 539.00,623.00 539.00,638.57 C539.00,641.77 538.81,641.99 536.50,641.41 C535.13,641.07 530.81,641.57 526.91,642.52 C523.02,643.48 515.25,645.05 509.66,646.01 C499.81,647.71 499.59,647.80 502.50,649.09 C504.32,649.90 509.43,650.44 515.50,650.46 C525.78,650.50 526.01,650.44 538.25,644.21 C538.66,644.00 539.00,657.49 539.00,674.17 L 539.00 704.51 L 527.24 708.30 C514.96,712.25 512.15,713.49 513.16,714.50 C513.86,715.20 528.79,711.53 533.84,709.42 C534.19,709.27 534.53,709.13 534.85,708.99 C536.32,708.35 537.38,707.89 538.14,708.19 C540.04,708.95 539.99,714.60 539.81,734.58 C539.80,736.28 539.78,738.08 539.77,740.00 L 539.50 772.00 L 537.24 772.00 C535.99,772.00 534.19,772.45 533.24,773.00 C532.28,773.55 526.21,775.35 519.75,777.00 C513.29,778.65 502.83,781.35 496.51,783.00 C490.19,784.65 484.79,786.00 484.51,786.00 C484.23,786.00 484.00,786.84 484.00,787.88 C484.00,791.82 486.05,791.96 498.51,788.87 C530.39,780.98 538.51,778.82 539.55,777.96 C541.23,776.57 542.00,777.87 542.00,782.10 C542.00,787.22 540.48,790.87 536.69,794.84 C532.89,798.81 527.88,801.54 521.88,802.89 ZM 441.97 567.03 L 454.44 576.00 L 567.83 576.00 L 574.66 571.00 C578.42,568.25 593.65,557.20 608.50,546.44 C623.35,535.69 638.05,524.68 641.16,521.97 C648.32,515.73 655.57,504.87 659.47,494.54 L 662.50 486.50 L 662.78 381.27 C663.05,277.17 663.03,275.95 660.95,267.77 C655.93,248.02 642.11,230.79 624.00,221.70 C621.24,220.32 619.05,219.18 616.78,218.25 C606.42,213.99 594.31,214.00 517.61,214.02 C515.19,214.02 512.71,214.02 510.16,214.02 C506.97,214.02 503.89,214.02 500.91,214.02 C427.19,214.03 415.46,214.03 405.40,218.14 C403.09,219.09 400.87,220.25 398.00,221.68 C381.59,229.86 367.83,245.96 361.26,264.65 C359.70,269.08 359.53,278.70 359.25,375.23 C359.24,380.45 359.22,385.42 359.21,390.17 C358.95,475.08 358.92,486.43 362.92,496.11 C363.77,498.14 364.79,500.10 366.02,502.65 C371.17,513.30 379.13,521.38 397.92,535.03 C405.85,540.79 416.20,548.32 420.92,551.78 C425.64,555.23 435.11,562.09 441.97,567.03 ZM 566.90 748.02 C557.63,749.66 549.58,751.00 549.02,751.00 C548.44,751.00 548.01,748.51 548.02,745.25 C548.07,734.40 550.86,665.81 551.27,665.40 C551.50,665.17 558.17,663.82 566.09,662.39 C583.25,659.31 591.81,659.48 597.52,663.01 C604.43,667.28 607.07,678.84 603.14,687.51 C601.38,691.37 594.95,698.00 592.97,698.00 C590.91,698.00 592.13,699.82 594.60,700.44 C608.60,703.95 610.15,727.59 597.05,737.96 C590.94,742.80 584.77,744.86 566.90,748.02 ZM 436.18 459.50 L 436.50 464.50 L 431.46 464.79 C428.69,464.96 426.10,464.77 425.71,464.38 C425.32,463.99 425.01,459.58 425.02,454.58 C425.10,420.68 445.57,390.12 477.50,376.21 C487.34,371.93 497.90,370.00 511.50,370.00 C536.46,370.00 554.39,377.08 571.66,393.75 C580.98,402.75 584.76,408.04 589.97,419.33 C595.76,431.86 597.50,439.66 597.50,453.00 L 597.50 464.50 L 587.50 464.50 L 586.79 455.31 C585.84,442.97 583.76,435.25 578.47,424.50 C569.81,406.89 554.00,393.28 534.64,386.78 C526.10,383.92 505.45,383.20 495.00,385.41 C480.17,388.54 463.41,398.72 453.88,410.38 C443.51,423.06 435.30,445.86 436.18,459.50 ZM 649.06 733.88 C643.51,736.27 633.86,737.39 629.94,736.11 C622.10,733.55 615.70,727.58 613.30,720.57 C610.68,712.90 610.96,696.26 613.83,688.92 C616.87,681.16 621.92,675.65 629.29,672.06 C644.96,664.42 659.04,668.44 665.03,682.26 C668.46,690.17 668.95,704.50 666.12,713.82 C663.46,722.59 656.62,730.63 649.06,733.88 ZM 712.49 722.08 C705.16,725.69 695.68,726.80 690.14,724.69 C685.31,722.86 679.29,717.49 676.98,712.96 C674.10,707.32 672.64,695.29 673.87,687.39 C676.42,671.02 685.33,661.12 700.30,658.04 C710.21,655.99 717.07,658.02 723.20,664.80 C728.45,670.61 729.50,674.65 729.50,689.00 C729.50,700.37 729.27,702.00 726.91,707.00 C723.19,714.90 719.74,718.51 712.49,722.08 ZM 747.50 716.67 C743.65,717.33 739.94,717.90 739.25,717.94 C737.63,718.02 737.66,712.18 739.50,665.50 C740.30,645.15 740.97,628.00 740.98,627.40 C740.99,626.79 744.12,625.78 747.94,625.15 C748.98,624.98 749.92,624.80 750.76,624.65 C753.86,624.08 755.70,623.74 756.75,624.50 C758.29,625.60 758.15,629.04 757.81,637.49 C757.75,639.06 757.68,640.81 757.61,642.75 C757.25,653.06 756.70,664.88 756.39,669.00 L 755.83 676.50 L 765.54 662.00 C770.88,654.03 775.61,647.10 776.06,646.61 C776.89,645.71 789.62,643.15 793.76,643.05 C795.83,643.00 795.58,643.63 790.76,650.53 C787.87,654.66 782.72,662.05 779.31,666.93 L 773.13 675.80 L 784.05 691.58 C790.06,700.25 794.76,707.57 794.50,707.83 C793.88,708.46 781.14,710.92 778.27,710.96 C776.54,710.99 774.47,708.66 769.00,700.50 C765.13,694.72 761.59,690.00 761.15,690.00 C760.71,690.00 759.34,691.07 758.11,692.38 C756.21,694.40 755.77,696.33 755.19,705.11 L 754.50 715.46 ZM 821.77 704.37 C812.28,707.13 799.28,707.29 797.19,704.69 C796.40,703.70 793.87,691.82 794.35,691.36 C794.43,691.28 797.39,691.81 800.92,692.55 C810.87,694.62 820.38,692.22 821.63,687.33 C822.63,683.39 821.55,681.53 817.00,679.33 C814.52,678.14 809.84,675.89 806.60,674.33 C798.46,670.43 796.61,667.64 796.21,658.70 C795.96,652.84 796.27,650.90 797.91,648.29 C802.12,641.57 813.01,637.04 825.00,637.02 C830.26,637.01 838.00,638.54 838.00,639.59 C838.00,639.87 837.29,642.92 836.42,646.38 L 834.84 652.67 L 829.67 651.29 C820.11,648.75 811.97,651.76 813.37,657.33 C813.97,659.74 818.22,662.07 827.32,664.98 C838.24,668.47 843.29,682.98 837.20,693.40 C834.62,697.81 827.89,702.60 821.77,704.37 ZM 481.06 601.59 L 484.10 606.00 L 538.76 606.00 L 541.55 602.25 C543.09,600.19 546.35,596.59 548.81,594.25 L 553.28 590.00 L 469.64 590.00 L 473.83 593.59 C476.14,595.56 479.39,599.16 481.06,601.59 ZM 633.35 720.53 C638.11,723.87 644.78,721.22 647.81,714.78 C650.54,708.99 651.37,701.48 650.07,694.38 C648.67,686.74 646.34,683.59 641.79,683.20 C636.82,682.77 632.48,686.64 630.52,693.26 C627.64,702.94 629.16,717.60 633.35,720.53 ZM 695.03 709.03 C697.42,711.42 702.67,711.62 705.79,709.43 C715.94,702.33 714.71,672.00 704.28,672.00 C696.24,672.00 691.64,679.60 691.55,693.00 C691.49,702.76 692.25,706.25 695.03,709.03 ZM 566.00 726.68 L 566.00 733.09 L 569.75 732.45 C578.19,731.01 581.54,729.66 584.81,726.39 C588.04,723.16 588.22,722.63 587.75,717.79 C587.05,710.46 584.54,708.57 576.49,709.32 C573.18,709.63 569.75,710.16 568.87,710.50 C567.02,711.21 566.00,716.97 566.00,726.68 ZM 567.59 686.87 L 566.91 696.24 L 570.71 695.56 C583.40,693.28 587.00,690.67 587.00,683.74 C587.00,676.61 585.65,675.63 576.64,676.21 C572.42,676.48 568.81,676.88 568.62,677.10 C568.43,677.32 567.97,681.72 567.59,686.87 ZM 507.00 625.06 C506.11,625.58 510.62,625.70 518.00,625.35 C527.67,624.90 530.78,624.41 531.75,623.18 C534.02,620.33 531.57,619.53 524.77,620.90 C521.32,621.60 516.25,622.62 513.50,623.17 C510.75,623.73 507.83,624.58 507.00,625.06 Z" fill="rgb(9,45,78)"/>
<path d="M 536.44 286.78 C534.91,288.96 534.50,289.00 512.60,289.00 C492.18,289.00 490.17,288.84 488.63,287.15 C487.16,285.52 486.99,282.75 487.23,263.90 L 487.50 242.50 L 490.83 242.18 C493.49,241.93 494.26,242.27 494.69,243.93 C495.38,246.56 496.61,246.59 497.29,244.00 C497.78,242.12 498.65,242.00 512.37,242.00 C526.48,242.00 526.96,242.07 528.02,244.25 C529.00,246.28 528.97,246.33 527.69,244.75 C526.47,243.23 524.41,243.00 512.26,243.00 C499.07,243.00 498.20,243.12 497.71,245.00 C497.42,246.10 496.65,247.00 496.00,247.00 C495.35,247.00 494.58,246.10 494.29,245.00 C493.92,243.58 492.93,243.00 490.88,243.00 C488.08,243.00 488.00,243.14 488.00,248.20 C488.00,252.24 488.27,253.13 489.20,252.20 C490.78,250.62 532.20,250.50 535.12,252.07 C537.00,253.07 537.10,252.85 536.81,248.32 C536.53,243.93 536.26,243.47 533.83,243.19 C531.95,242.97 531.01,243.42 530.64,244.69 C530.20,246.20 530.15,246.17 530.32,244.50 C530.56,242.10 535.80,241.08 537.13,243.17 C537.59,243.90 537.98,253.51 537.98,264.53 C538.00,281.05 537.73,284.94 536.44,286.78 ZM 490.69 285.35 C491.06,285.73 501.08,285.92 512.94,285.77 L 534.50 285.50 L 534.50 252.50 L 490.00 251.96 L 490.00 268.31 C490.00,277.31 490.31,284.98 490.69,285.35 ZM 763.00 735.00 C750.12,738.56 747.66,738.34 759.50,734.68 L 764.50 733.14 L 760.00 733.58 C757.53,733.82 755.95,733.80 756.50,733.54 C758.81,732.44 794.27,724.94 794.78,725.45 C795.63,726.29 795.35,726.39 782.00,729.91 C775.12,731.72 766.58,734.01 763.00,735.00 ZM 336.06 824.48 C318.56,827.01 314.24,827.43 315.17,826.50 C315.44,826.23 317.65,825.60 320.08,825.11 C322.51,824.62 331.40,822.78 339.84,821.04 C348.28,819.29 355.39,818.06 355.64,818.31 C355.89,818.55 353.03,819.33 349.29,820.02 C341.95,821.39 335.78,823.48 341.95,822.51 C346.87,821.74 356.79,820.98 355.00,821.51 C354.17,821.76 345.65,823.09 336.06,824.48 ZM 539.60 759.68 C539.79,763.86 540.11,767.40 540.61,771.23 C540.90,773.44 541.14,775.69 541.31,777.78 C540.91,777.25 540.33,777.31 539.55,777.96 C539.07,778.35 537.10,779.03 532.02,780.40 C538.02,778.53 539.00,777.44 539.00,775.80 L 539.00 775.67 C539.00,774.95 539.00,774.36 538.73,773.96 C537.96,772.82 535.00,773.15 523.64,775.97 C528.49,774.66 532.48,773.43 533.24,773.00 C534.19,772.45 535.99,772.00 537.24,772.00 L 539.50 772.00 ZM 496.64 681.69 C497.32,680.44 498.93,679.63 503.00,678.04 C509.81,675.38 514.20,673.07 512.50,673.05 C511.95,673.04 508.80,673.68 505.50,674.48 C502.37,675.24 500.26,675.70 498.84,675.85 C501.75,675.39 508.50,673.73 514.31,672.01 C516.40,671.38 518.87,671.02 519.79,671.20 C520.71,671.37 515.84,673.54 508.98,676.01 C500.14,679.19 497.53,680.23 496.64,681.69 ZM 531.00 261.56 C531.00,263.21 529.42,263.49 528.50,262.00 C527.68,260.68 528.88,258.81 530.07,259.54 C530.58,259.86 531.00,260.77 531.00,261.56 ZM 507.00 276.06 C507.00,277.28 504.29,277.28 503.54,276.07 C503.23,275.56 503.42,274.86 503.98,274.51 C505.18,273.77 507.00,274.71 507.00,276.06 ZM 515.00 276.06 C515.00,277.28 512.29,277.28 511.54,276.07 C511.23,275.56 511.42,274.86 511.98,274.51 C513.18,273.77 515.00,274.71 515.00,276.06 ZM 523.50 268.99 C522.69,270.30 521.29,270.28 520.46,268.93 C519.54,267.44 520.61,266.63 522.52,267.37 C523.40,267.71 523.85,268.44 523.50,268.99 ZM 507.00 268.50 C507.00,269.33 506.33,270.00 505.50,270.00 C504.67,270.00 504.00,269.33 504.00,268.50 C504.00,267.67 504.67,267.00 505.50,267.00 C506.33,267.00 507.00,267.67 507.00,268.50 ZM 515.00 268.50 C515.00,269.33 514.33,270.00 513.50,270.00 C512.67,270.00 512.00,269.33 512.00,268.50 C512.00,267.67 512.67,267.00 513.50,267.00 C514.33,267.00 515.00,267.67 515.00,268.50 ZM 531.00 275.50 C531.00,276.33 530.33,277.00 529.50,277.00 C528.67,277.00 528.00,276.33 528.00,275.50 C528.00,274.67 528.67,274.00 529.50,274.00 C530.33,274.00 531.00,274.67 531.00,275.50 ZM 506.81 261.25 C507.02,262.34 506.53,263.00 505.50,263.00 C504.54,263.00 503.99,262.35 504.18,261.45 C504.63,259.28 506.40,259.14 506.81,261.25 ZM 499.00 261.50 C499.00,263.06 497.82,263.48 496.67,262.33 C495.52,261.18 495.94,260.00 497.50,260.00 C498.33,260.00 499.00,260.67 499.00,261.50 ZM 499.00 268.50 C499.00,270.06 497.82,270.48 496.67,269.33 C495.52,268.18 495.94,267.00 497.50,267.00 C498.33,267.00 499.00,267.67 499.00,268.50 ZM 523.00 261.50 C523.00,263.06 521.82,263.48 520.67,262.33 C519.52,261.18 519.94,260.00 521.50,260.00 C522.33,260.00 523.00,260.67 523.00,261.50 ZM 531.00 268.50 C531.00,270.06 529.82,270.48 528.67,269.33 C527.52,268.18 527.94,267.00 529.50,267.00 C530.33,267.00 531.00,267.67 531.00,268.50 ZM 498.77 275.81 C498.99,276.47 498.45,277.00 497.58,277.00 C496.71,277.00 496.00,276.29 496.00,275.42 C496.00,273.65 498.15,273.96 498.77,275.81 ZM 522.77 275.81 C522.99,276.47 522.45,277.00 521.58,277.00 C520.71,277.00 520.00,276.29 520.00,275.42 C520.00,273.65 522.15,273.96 522.77,275.81 ZM 514.50 261.17 C514.50,261.81 513.89,262.54 513.15,262.78 C512.31,263.06 511.94,262.61 512.15,261.56 C512.54,259.69 514.50,259.36 514.50,261.17 ZM 536.54 708.30 C537.40,708.00 538.06,707.88 538.56,708.11 C540.15,708.83 540.19,712.99 539.88,725.61 C539.95,712.83 539.72,708.82 538.14,708.19 C537.71,708.02 537.18,708.09 536.54,708.30 ZM 541.59 786.28 C541.57,786.44 541.55,786.57 541.53,786.69 C541.03,789.38 539.33,792.15 536.87,794.65 C539.44,791.91 540.93,789.32 541.59,786.28 ZM 485.02 790.59 C484.23,790.11 484.00,789.21 484.00,787.88 C484.00,787.81 484.00,787.75 484.00,787.69 C484.11,788.68 484.48,789.88 485.02,790.59 ZM 501.37 788.17 C500.44,788.40 499.48,788.63 498.51,788.87 C496.94,789.26 495.54,789.60 494.29,789.88 C496.38,789.37 498.81,788.78 501.37,788.17 ZM 496.37 675.30 C496.07,674.89 496.00,674.27 496.00,673.41 C496.00,674.26 496.12,674.88 496.37,675.30 Z" fill="rgb(210,191,178)"/>
<path d="M 441.97 567.03 C435.11,562.09 425.64,555.23 420.92,551.78 C416.20,548.32 405.85,540.79 397.92,535.03 C379.13,521.38 371.17,513.30 366.02,502.65 C364.79,500.10 363.77,498.14 362.92,496.11 C358.92,486.43 358.95,475.08 359.21,390.17 C359.22,385.42 359.24,380.45 359.25,375.23 C359.53,278.70 359.70,269.08 361.26,264.65 C367.83,245.96 381.59,229.86 398.00,221.68 C400.87,220.25 403.09,219.09 405.40,218.14 C415.46,214.03 427.19,214.03 500.91,214.02 C503.89,214.02 506.97,214.02 510.16,214.02 C512.71,214.02 515.19,214.02 517.61,214.02 C594.31,214.00 606.42,213.99 616.78,218.25 C619.05,219.18 621.24,220.32 624.00,221.70 C642.11,230.79 655.93,248.02 660.95,267.77 C663.03,275.95 663.05,277.17 662.78,381.27 L 662.50 486.50 L 659.47 494.54 C655.57,504.87 648.32,515.73 641.16,521.97 C638.05,524.68 623.35,535.69 608.50,546.44 C593.65,557.20 578.42,568.25 574.66,571.00 L 567.83 576.00 L 454.44 576.00 ZM 494.87 545.93 C509.05,548.01 525.59,546.83 538.00,542.85 C568.87,532.94 592.15,508.46 600.13,477.50 C603.41,464.78 603.42,444.11 600.14,432.50 C593.55,409.15 584.25,394.88 566.43,380.79 C557.68,373.88 546.15,368.04 535.00,364.90 C527.57,362.80 524.42,362.50 510.00,362.52 C495.84,362.54 492.37,362.86 485.50,364.83 C455.28,373.48 432.13,395.56 421.39,426.00 C419.07,432.57 418.68,435.49 418.26,449.56 C417.83,463.79 418.03,466.63 419.99,474.56 C424.30,491.97 433.04,507.25 446.13,520.25 C459.93,533.96 477.94,543.44 494.87,545.93 ZM 527.55 528.99 C518.36,531.34 503.90,531.55 494.43,529.47 C472.64,524.68 452.66,506.96 445.35,485.97 C441.73,475.54 440.44,464.04 441.72,453.48 C442.80,444.63 443.66,443.04 447.46,443.02 C448.54,443.01 453.17,441.15 457.74,438.88 C473.38,431.13 485.55,417.02 490.27,401.16 C491.48,397.10 493.20,393.43 494.13,392.93 C497.41,391.17 512.35,390.14 520.75,391.09 C552.83,394.72 576.00,417.68 580.08,449.89 C581.30,459.56 580.39,464.00 577.16,464.00 C572.63,464.00 560.41,471.43 553.45,478.42 C542.29,489.64 536.67,503.13 537.10,517.73 C537.21,521.78 536.89,525.51 536.37,526.03 C535.85,526.55 531.88,527.88 527.55,528.99 ZM 496.64 681.69 C496.35,682.17 496.25,682.69 496.17,683.34 C495.91,685.68 496.17,686.09 497.67,685.68 C498.68,685.40 501.30,684.89 503.50,684.55 C505.70,684.21 508.76,683.68 510.30,683.38 L 513.09 682.82 L 512.80 690.16 L 512.50 697.50 L 504.00 699.00 L 495.50 700.50 L 494.87 710.50 C493.77,727.84 493.90,739.50 495.20,740.80 C496.92,742.52 500.86,742.24 505.66,740.07 L 509.83 738.18 L 510.96 744.68 C511.79,749.45 511.79,751.54 510.98,752.52 C508.94,754.98 497.90,758.00 490.94,758.00 L 484.26 758.00 L 484.25 758.11 L 480.71 754.77 C476.01,750.33 475.64,747.75 476.21,723.83 C476.62,706.85 476.48,703.99 475.26,704.45 C474.48,704.75 472.75,705.00 471.42,705.00 C469.67,705.00 469.00,705.55 469.00,707.00 C469.00,708.69 468.33,709.00 464.65,709.00 C457.40,709.00 450.50,715.16 447.97,723.88 C447.39,725.87 446.64,735.95 446.31,746.29 C445.97,756.62 445.35,765.28 444.93,765.54 C443.56,766.39 427.80,769.13 427.28,768.61 C426.56,767.89 429.10,698.65 429.87,697.80 C430.22,697.42 433.54,696.79 437.25,696.41 L 444.00 695.72 L 444.00 701.36 C444.00,707.46 444.99,708.51 446.86,704.40 C447.51,702.98 449.20,700.30 450.60,698.45 C455.59,691.92 470.00,687.13 470.00,692.00 C470.00,694.56 470.25,694.53 475.02,691.37 C478.51,689.06 479.30,687.77 481.50,680.82 C483.81,673.50 484.00,671.45 484.00,653.28 C484.00,671.71 484.13,673.10 485.75,672.64 C486.71,672.37 489.41,671.85 491.75,671.49 C495.83,670.85 496.00,670.93 496.00,673.41 C496.00,674.27 496.07,674.89 496.37,675.30 C496.65,675.77 497.10,675.98 497.75,675.96 C498.00,675.96 498.37,675.92 498.84,675.84 C499.43,675.79 500.15,675.67 501.01,675.50 C497.93,676.42 496.37,677.34 496.18,678.32 C496.00,679.24 496.32,680.00 496.89,680.00 C497.47,680.00 499.04,679.54 500.96,678.86 C498.36,679.95 497.20,680.68 496.64,681.69 ZM 320.20 788.88 C313.77,790.24 312.60,790.22 307.50,788.60 C297.64,785.48 292.32,780.19 289.49,770.65 C287.34,763.42 287.51,746.77 289.80,739.91 C294.97,724.43 306.56,716.11 323.00,716.06 C335.27,716.03 340.78,719.71 346.21,731.56 C348.19,735.88 348.47,738.13 348.49,749.50 C348.50,762.00 348.38,762.75 345.38,769.09 C340.23,779.96 332.09,786.35 320.20,788.88 ZM 259.18 799.48 C248.82,801.63 243.95,801.12 235.66,796.97 C223.70,791.00 217.51,777.27 217.63,757.00 C217.73,739.58 221.85,728.21 231.87,717.70 C240.93,708.18 251.79,704.02 267.50,704.04 C274.82,704.05 282.45,705.12 283.64,706.30 C283.98,706.64 280.53,720.53 279.57,722.67 C279.53,722.76 277.02,722.17 274.00,721.35 C267.67,719.65 258.99,720.14 253.26,722.53 C247.83,724.80 243.58,729.35 240.34,736.36 C237.66,742.14 237.50,743.28 237.50,756.00 C237.50,767.91 237.75,769.97 239.65,773.50 C244.15,781.86 250.20,784.78 259.09,782.90 C263.32,782.01 273.02,778.11 278.10,775.27 C278.62,774.98 281.00,787.04 281.00,789.99 C281.00,791.78 267.11,797.82 259.18,799.48 ZM 382.10 777.86 C373.58,780.72 365.28,777.61 361.00,769.97 C358.50,765.51 358.50,765.46 358.50,738.33 C358.50,723.39 358.77,710.89 359.10,710.56 C359.57,710.09 375.00,707.01 376.90,707.00 C377.12,707.00 376.99,718.16 376.60,731.80 C375.92,756.10 375.95,756.66 378.02,759.30 C380.63,762.61 384.65,762.85 388.39,759.91 C394.30,755.26 396.46,745.89 397.52,720.33 L 398.22 703.17 L 404.86 702.06 C408.51,701.45 412.74,700.70 414.25,700.40 C415.76,700.09 416.98,700.21 416.96,700.67 C416.94,701.13 416.32,716.87 415.58,735.66 C414.84,754.45 413.96,770.26 413.63,770.79 C413.30,771.33 410.55,772.08 407.52,772.45 C404.49,772.83 401.69,773.22 401.29,773.32 C400.89,773.42 400.09,770.80 399.53,767.50 L 398.50 761.50 L 395.33 766.64 C391.84,772.29 387.33,776.11 382.10,777.86 ZM 536.44 286.78 C537.73,284.94 538.00,281.05 537.98,264.53 C537.98,253.51 537.59,243.90 537.13,243.17 C535.80,241.08 530.56,242.10 530.32,244.50 C530.24,245.27 530.21,245.69 530.24,245.77 C529.80,246.00 529.24,246.02 528.71,245.83 C528.72,245.71 528.48,245.20 528.02,244.25 C526.96,242.07 526.48,242.00 512.37,242.00 C498.65,242.00 497.78,242.12 497.29,244.00 C496.61,246.59 495.38,246.56 494.69,243.93 C494.26,242.27 493.49,241.93 490.83,242.18 L 487.50 242.50 L 487.23 263.90 C486.99,282.75 487.16,285.52 488.63,287.15 C490.17,288.84 492.18,289.00 512.60,289.00 C534.50,289.00 534.91,288.96 536.44,286.78 ZM 490.69 285.35 C490.31,284.98 490.00,277.31 490.00,268.31 L 490.00 251.96 L 534.50 252.50 L 534.50 285.50 L 512.94 285.77 C501.08,285.92 491.06,285.73 490.69,285.35 ZM 567.06 783.65 C564.38,785.05 563.32,785.17 561.25,784.34 C559.45,783.61 559.71,781.64 562.00,778.73 C564.21,775.91 570.10,773.85 582.50,771.54 C591.34,769.90 610.43,765.83 646.00,758.01 C658.92,755.17 675.58,751.57 683.00,750.01 C690.42,748.45 707.08,744.84 720.00,741.98 C732.92,739.12 745.97,736.24 749.00,735.57 C752.03,734.91 755.17,734.07 756.00,733.71 C756.07,733.68 756.22,733.63 756.45,733.56 C756.06,733.80 757.61,733.81 760.00,733.58 L 764.50 733.14 L 759.50 734.68 C748.96,737.93 749.75,738.47 759.13,736.04 C698.03,752.33 584.20,780.82 576.56,781.60 C572.74,782.00 568.47,782.92 567.06,783.65 ZM 312.12 772.37 C318.07,776.54 325.85,771.77 328.62,762.24 C330.68,755.14 330.15,740.99 327.63,736.21 C324.48,730.21 319.04,729.57 313.17,734.51 C308.96,738.05 307.00,744.63 307.00,755.21 C307.00,764.96 308.44,769.79 312.12,772.37 ZM 399.78 302.04 C403.66,303.25 408.91,302.25 413.15,299.48 C422.27,293.54 422.38,279.73 413.36,273.60 C408.66,270.40 401.24,270.07 395.98,272.82 C391.82,275.00 387.98,281.84 388.04,286.96 C388.12,293.37 393.28,300.01 399.78,302.04 ZM 559.32 511.29 C552.10,518.40 545.46,522.63 544.69,520.62 C543.98,518.78 545.53,507.35 547.08,503.00 C549.41,496.44 553.91,489.51 559.21,484.31 C567.27,476.40 580.00,469.41 580.00,472.89 C580.00,475.02 575.56,487.92 573.25,492.50 C569.49,499.97 565.86,504.86 559.32,511.29 ZM 351.88 822.08 C353.60,821.79 354.73,821.59 355.00,821.51 C356.79,820.98 346.87,821.74 341.95,822.51 C335.78,823.48 341.95,821.39 349.29,820.02 C353.03,819.33 355.89,818.55 355.64,818.31 C355.39,818.06 348.28,819.29 339.84,821.04 C331.40,822.78 322.51,824.62 320.08,825.11 C319.18,825.29 318.30,825.49 317.55,825.69 C318.30,825.49 319.18,825.29 320.08,825.11 C322.51,824.62 330.35,822.99 337.50,821.49 C344.65,819.99 352.98,818.42 356.00,818.00 C359.02,817.57 368.02,815.81 376.00,814.07 C383.98,812.33 401.30,808.68 414.50,805.95 C427.70,803.22 440.30,800.54 442.50,799.98 C449.39,798.26 462.36,796.04 465.68,796.02 C468.70,796.00 472.00,798.10 472.00,800.05 C472.00,802.89 467.13,803.93 416.00,811.97 C405.27,813.66 392.45,815.69 387.50,816.49 C376.48,818.27 363.46,820.31 351.88,822.08 ZM 456.02 431.25 C448.80,435.43 447.00,435.83 447.00,433.23 C447.00,430.09 455.65,416.66 461.23,411.13 C469.83,402.62 481.73,395.40 483.79,397.46 C484.17,397.84 482.69,401.58 480.49,405.77 C475.61,415.08 465.19,425.94 456.02,431.25 ZM 507.00 625.06 C507.83,624.58 510.75,623.73 513.50,623.17 C516.25,622.62 521.32,621.60 524.77,620.90 C531.57,619.53 534.02,620.33 531.75,623.18 C530.78,624.41 527.67,624.90 518.00,625.35 C510.62,625.70 506.11,625.58 507.00,625.06 ZM 531.00 261.56 C531.00,260.77 530.58,259.86 530.07,259.54 C528.88,258.81 527.68,260.68 528.50,262.00 C529.42,263.49 531.00,263.21 531.00,261.56 ZM 507.00 276.06 C507.00,274.71 505.18,273.77 503.98,274.51 C503.42,274.86 503.23,275.56 503.54,276.07 C504.29,277.28 507.00,277.28 507.00,276.06 ZM 515.00 276.06 C515.00,274.71 513.18,273.77 511.98,274.51 C511.42,274.86 511.23,275.56 511.54,276.07 C512.29,277.28 515.00,277.28 515.00,276.06 ZM 523.50 268.99 C523.85,268.44 523.40,267.71 522.52,267.37 C520.61,266.63 519.54,267.44 520.46,268.93 C521.29,270.28 522.69,270.30 523.50,268.99 ZM 507.00 268.50 C507.00,267.67 506.33,267.00 505.50,267.00 C504.67,267.00 504.00,267.67 504.00,268.50 C504.00,269.33 504.67,270.00 505.50,270.00 C506.33,270.00 507.00,269.33 507.00,268.50 ZM 515.00 268.50 C515.00,267.67 514.33,267.00 513.50,267.00 C512.67,267.00 512.00,267.67 512.00,268.50 C512.00,269.33 512.67,270.00 513.50,270.00 C514.33,270.00 515.00,269.33 515.00,268.50 ZM 531.00 275.50 C531.00,274.67 530.33,274.00 529.50,274.00 C528.67,274.00 528.00,274.67 528.00,275.50 C528.00,276.33 528.67,277.00 529.50,277.00 C530.33,277.00 531.00,276.33 531.00,275.50 ZM 506.81 261.25 C506.40,259.14 504.63,259.28 504.18,261.45 C503.99,262.35 504.54,263.00 505.50,263.00 C506.53,263.00 507.02,262.34 506.81,261.25 ZM 499.00 261.50 C499.00,260.67 498.33,260.00 497.50,260.00 C495.94,260.00 495.52,261.18 496.67,262.33 C497.82,263.48 499.00,263.06 499.00,261.50 ZM 499.00 268.50 C499.00,267.67 498.33,267.00 497.50,267.00 C495.94,267.00 495.52,268.18 496.67,269.33 C497.82,270.48 499.00,270.06 499.00,268.50 ZM 523.00 261.50 C523.00,260.67 522.33,260.00 521.50,260.00 C519.94,260.00 519.52,261.18 520.67,262.33 C521.82,263.48 523.00,263.06 523.00,261.50 ZM 531.00 268.50 C531.00,267.67 530.33,267.00 529.50,267.00 C527.94,267.00 527.52,268.18 528.67,269.33 C529.82,270.48 531.00,270.06 531.00,268.50 ZM 498.77 275.81 C498.15,273.96 496.00,273.65 496.00,275.42 C496.00,276.29 496.71,277.00 497.58,277.00 C498.45,277.00 498.99,276.47 498.77,275.81 ZM 522.77 275.81 C522.15,273.96 520.00,273.65 520.00,275.42 C520.00,276.29 520.71,277.00 521.58,277.00 C522.45,277.00 522.99,276.47 522.77,275.81 ZM 514.50 261.17 C514.50,259.36 512.54,259.69 512.15,261.56 C511.94,262.61 512.31,263.06 513.15,262.78 C513.89,262.54 514.50,261.81 514.50,261.17 ZM 794.99 725.69 C795.24,726.07 794.87,726.36 792.26,727.14 C791.13,727.52 789.75,727.92 788.25,728.29 C787.27,728.54 786.10,728.83 784.84,729.16 C788.34,728.23 790.70,727.60 792.26,727.14 C793.92,726.58 795.00,726.07 795.00,725.81 C795.00,725.77 795.00,725.73 794.99,725.69 C794.94,725.61 794.87,725.53 794.78,725.45 C794.52,725.18 784.80,727.08 775.20,729.12 C784.46,727.02 793.71,725.00 794.37,725.00 C794.69,725.00 794.95,725.30 794.99,725.69 ZM 530.30 245.74 C530.36,245.62 530.47,245.27 530.64,244.69 C530.75,244.31 530.91,244.01 531.13,243.77 C531.04,243.95 531.00,244.17 531.00,244.43 C531.00,245.06 530.71,245.50 530.30,245.74 ZM 528.57 245.78 C528.06,245.56 527.60,245.13 527.36,244.50 C527.34,244.43 527.30,244.37 527.27,244.31 C527.43,244.44 527.57,244.59 527.69,244.75 C528.13,245.28 528.42,245.63 528.57,245.78 ZM 763.00 735.00 C765.15,734.41 769.08,733.34 773.37,732.20 C770.01,733.12 766.36,734.10 762.46,735.15 C762.64,735.10 762.82,735.05 763.00,735.00 ZM 533.63 243.17 C533.70,243.18 533.77,243.18 533.83,243.19 C534.76,243.30 535.38,243.43 535.79,243.81 C535.37,243.43 534.73,243.30 533.75,243.18 C533.71,243.18 533.67,243.17 533.63,243.17 Z" fill="rgb(247,111,29)"/>
<path d="M 0.00 512.00 L 0.00 0.00 L 512.00 0.00 L 1024.00 0.00 L 1024.00 512.00 L 1024.00 1024.00 L 512.00 1024.00 L 0.00 1024.00 L 0.00 512.00 ZM 332.50 824.97 C346.19,822.99 369.52,819.40 387.50,816.49 C392.45,815.69 405.27,813.66 416.00,811.97 C467.13,803.93 472.00,802.89 472.00,800.05 C472.00,798.10 468.70,796.00 465.68,796.02 C462.36,796.04 449.39,798.26 442.50,799.98 C440.30,800.54 427.70,803.22 414.50,805.95 C401.30,808.68 383.98,812.33 376.00,814.07 C368.02,815.81 359.02,817.57 356.00,818.00 C352.98,818.42 344.65,819.99 337.50,821.49 C330.35,822.99 322.51,824.62 320.08,825.11 C317.65,825.60 315.44,826.23 315.17,826.50 C314.28,827.38 318.20,827.04 332.50,824.97 ZM 521.88 802.89 C531.43,800.74 540.26,793.46 541.53,786.69 C541.88,784.81 541.47,777.85 540.61,771.23 C539.37,761.68 539.18,753.90 539.68,733.60 C540.39,705.22 540.71,706.55 533.84,709.42 C528.79,711.53 513.86,715.20 513.16,714.50 C512.15,713.49 514.96,712.25 527.24,708.30 L 539.00 704.51 L 539.00 674.17 C539.00,657.49 538.66,644.00 538.25,644.21 C526.01,650.44 525.78,650.50 515.50,650.46 C509.43,650.44 504.32,649.90 502.50,649.09 C499.59,647.80 499.81,647.71 509.66,646.01 C515.25,645.05 523.02,643.48 526.91,642.52 C530.81,641.57 535.13,641.07 536.50,641.41 C538.81,641.99 539.00,641.77 539.00,638.57 C539.00,623.00 548.17,608.51 566.00,595.91 C569.58,593.38 586.12,581.45 602.76,569.41 C619.41,557.36 635.83,545.56 639.26,543.20 C654.28,532.84 662.95,522.93 670.48,507.50 C679.01,490.03 678.38,499.59 678.75,382.00 C679.11,266.07 679.29,269.94 672.54,253.29 C661.77,226.75 637.83,206.51 611.16,201.40 C600.23,199.31 422.64,199.34 411.69,201.43 C382.13,207.09 355.64,232.05 346.80,262.57 L 344.50 270.50 L 344.50 379.00 L 344.50 487.50 L 346.77 494.67 C354.06,517.73 365.30,530.80 396.50,552.52 C399.25,554.43 405.55,558.93 410.50,562.50 C420.99,570.08 425.68,573.46 448.00,589.44 C481.19,613.20 484.00,618.17 484.00,653.16 C484.00,671.44 483.82,673.48 481.50,680.82 C479.30,687.77 478.51,689.06 475.02,691.37 C470.25,694.53 470.00,694.56 470.00,692.00 C470.00,687.13 455.59,691.92 450.60,698.45 C449.20,700.30 447.51,702.98 446.86,704.40 C444.99,708.51 444.00,707.46 444.00,701.36 L 444.00 695.72 L 437.25 696.41 C433.54,696.79 430.22,697.42 429.87,697.80 C429.10,698.65 426.56,767.89 427.28,768.61 C427.80,769.13 443.56,766.39 444.93,765.54 C445.35,765.28 445.97,756.62 446.31,746.29 C446.64,735.95 447.39,725.87 447.97,723.88 C450.50,715.16 457.40,709.00 464.65,709.00 C468.33,709.00 469.00,708.69 469.00,707.00 C469.00,705.55 469.67,705.00 471.42,705.00 C472.75,705.00 474.48,704.75 475.26,704.45 C476.48,703.99 476.62,706.85 476.21,723.83 C475.64,747.75 476.01,750.33 480.71,754.77 L 484.26 758.11 L 483.61 765.80 C481.53,790.30 481.41,788.06 485.13,793.02 C492.29,802.55 506.48,806.36 521.88,802.89 ZM 259.18 799.48 C267.11,797.82 281.00,791.78 281.00,789.99 C281.00,787.04 278.62,774.98 278.10,775.27 C273.02,778.11 263.32,782.01 259.09,782.90 C250.20,784.78 244.15,781.86 239.65,773.50 C237.75,769.97 237.50,767.91 237.50,756.00 C237.50,743.28 237.66,742.14 240.34,736.36 C243.58,729.35 247.83,724.80 253.26,722.53 C258.99,720.14 267.67,719.65 274.00,721.35 C277.02,722.17 279.53,722.76 279.57,722.67 C280.53,720.53 283.98,706.64 283.64,706.30 C282.45,705.12 274.82,704.05 267.50,704.04 C251.79,704.02 240.93,708.18 231.87,717.70 C221.85,728.21 217.73,739.58 217.63,757.00 C217.51,777.27 223.70,791.00 235.66,796.97 C243.95,801.12 248.82,801.63 259.18,799.48 ZM 320.20 788.88 C332.09,786.35 340.23,779.96 345.38,769.09 C348.38,762.75 348.50,762.00 348.49,749.50 C348.47,738.13 348.19,735.88 346.21,731.56 C340.78,719.71 335.27,716.03 323.00,716.06 C306.56,716.11 294.97,724.43 289.80,739.91 C287.51,746.77 287.34,763.42 289.49,770.65 C292.32,780.19 297.64,785.48 307.50,788.60 C312.60,790.22 313.77,790.24 320.20,788.88 ZM 567.06 783.65 C568.47,782.92 572.74,782.00 576.56,781.60 C584.87,780.75 719.01,747.07 774.00,732.03 C778.12,730.90 784.54,729.22 788.25,728.29 C791.96,727.37 795.00,726.25 795.00,725.81 C795.00,725.36 794.72,725.00 794.37,725.00 C793.04,725.00 757.42,733.08 756.00,733.71 C755.17,734.07 752.03,734.91 749.00,735.57 C745.97,736.24 732.92,739.12 720.00,741.98 C707.08,744.84 690.42,748.45 683.00,750.01 C675.58,751.57 658.92,755.17 646.00,758.01 C610.43,765.83 591.34,769.90 582.50,771.54 C570.10,773.85 564.21,775.91 562.00,778.73 C559.71,781.64 559.45,783.61 561.25,784.34 C563.32,785.17 564.38,785.05 567.06,783.65 ZM 382.10 777.86 C387.33,776.11 391.84,772.29 395.33,766.64 L 398.50 761.50 L 399.53 767.50 C400.09,770.80 400.89,773.42 401.29,773.32 C401.69,773.22 404.49,772.83 407.52,772.45 C410.55,772.08 413.30,771.33 413.63,770.79 C413.96,770.26 414.84,754.45 415.58,735.66 C416.32,716.87 416.94,701.13 416.96,700.67 C416.98,700.21 415.76,700.09 414.25,700.40 C412.74,700.70 408.51,701.45 404.86,702.06 L 398.22 703.17 L 397.52 720.33 C396.46,745.89 394.30,755.26 388.39,759.91 C384.65,762.85 380.63,762.61 378.02,759.30 C375.95,756.66 375.92,756.10 376.60,731.80 C376.99,718.16 377.12,707.00 376.90,707.00 C375.00,707.01 359.57,710.09 359.10,710.56 C358.77,710.89 358.50,723.39 358.50,738.33 C358.50,765.46 358.50,765.51 361.00,769.97 C365.28,777.61 373.58,780.72 382.10,777.86 ZM 566.90 748.02 C584.77,744.86 590.94,742.80 597.05,737.96 C610.15,727.59 608.60,703.95 594.60,700.44 C592.13,699.82 590.91,698.00 592.97,698.00 C594.95,698.00 601.38,691.37 603.14,687.51 C607.07,678.84 604.43,667.28 597.52,663.01 C591.81,659.48 583.25,659.31 566.09,662.39 C558.17,663.82 551.50,665.17 551.27,665.40 C550.86,665.81 548.07,734.40 548.02,745.25 C548.01,748.51 548.44,751.00 549.02,751.00 C549.58,751.00 557.63,749.66 566.90,748.02 ZM 649.06 733.88 C656.62,730.63 663.46,722.59 666.12,713.82 C668.95,704.50 668.46,690.17 665.03,682.26 C659.04,668.44 644.96,664.42 629.29,672.06 C621.92,675.65 616.87,681.16 613.83,688.92 C610.96,696.26 610.68,712.90 613.30,720.57 C615.70,727.58 622.10,733.55 629.94,736.11 C633.86,737.39 643.51,736.27 649.06,733.88 ZM 712.49 722.08 C719.74,718.51 723.19,714.90 726.91,707.00 C729.27,702.00 729.50,700.37 729.50,689.00 C729.50,674.65 728.45,670.61 723.20,664.80 C717.07,658.02 710.21,655.99 700.30,658.04 C685.33,661.12 676.42,671.02 673.87,687.39 C672.64,695.29 674.10,707.32 676.98,712.96 C679.29,717.49 685.31,722.86 690.14,724.69 C695.68,726.80 705.16,725.69 712.49,722.08 ZM 747.50 716.67 L 754.50 715.46 L 755.19 705.11 C755.77,696.33 756.21,694.40 758.11,692.38 C759.34,691.07 760.71,690.00 761.15,690.00 C761.59,690.00 765.13,694.72 769.00,700.50 C774.47,708.66 776.54,710.99 778.27,710.96 C781.14,710.92 793.88,708.46 794.50,707.83 C794.76,707.57 790.06,700.25 784.05,691.58 L 773.13 675.80 L 779.31 666.93 C782.72,662.05 787.87,654.66 790.76,650.53 C795.58,643.63 795.83,643.00 793.76,643.05 C789.62,643.15 776.89,645.71 776.06,646.61 C775.61,647.10 770.88,654.03 765.54,662.00 L 755.83 676.50 L 756.39 669.00 C756.70,664.88 757.25,653.06 757.61,642.75 C758.36,621.33 759.42,623.25 747.94,625.15 C744.12,625.78 740.99,626.79 740.98,627.40 C740.97,628.00 740.30,645.15 739.50,665.50 C737.66,712.18 737.63,718.02 739.25,717.94 C739.94,717.90 743.65,717.33 747.50,716.67 ZM 821.77 704.37 C827.89,702.60 834.62,697.81 837.20,693.40 C843.29,682.98 838.24,668.47 827.32,664.98 C818.22,662.07 813.97,659.74 813.37,657.33 C811.97,651.76 820.11,648.75 829.67,651.29 L 834.84 652.67 L 836.42 646.38 C837.29,642.92 838.00,639.87 838.00,639.59 C838.00,638.54 830.26,637.01 825.00,637.02 C813.01,637.04 802.12,641.57 797.91,648.29 C796.27,650.90 795.96,652.84 796.21,658.70 C796.61,667.64 798.46,670.43 806.60,674.33 C809.84,675.89 814.52,678.14 817.00,679.33 C821.55,681.53 822.63,683.39 821.63,687.33 C820.38,692.22 810.87,694.62 800.92,692.55 C797.39,691.81 794.43,691.28 794.35,691.36 C793.87,691.82 796.40,703.70 797.19,704.69 C799.28,707.29 812.28,707.13 821.77,704.37 ZM 485.22 790.82 C484.03,789.63 483.49,786.00 484.51,786.00 C484.78,786.00 491.20,784.38 498.76,782.41 C539.45,771.77 539.00,771.84 539.00,775.80 C539.00,778.87 535.58,780.00 502.06,788.00 C494.67,789.76 488.13,791.40 487.53,791.63 C486.93,791.86 485.89,791.49 485.22,790.82 ZM 496.18 678.32 C496.50,676.67 500.74,675.17 509.64,673.57 C513.16,672.94 513.32,673.00 511.50,674.29 C509.37,675.80 498.62,680.00 496.89,680.00 C496.32,680.00 496.00,679.24 496.18,678.32 ZM 481.06 601.59 C479.39,599.16 476.14,595.56 473.83,593.59 L 469.64 590.00 L 511.46 590.00 L 553.28 590.00 L 548.81 594.25 C546.35,596.59 543.09,600.19 541.55,602.25 L 538.76 606.00 L 511.43 606.00 L 484.10 606.00 L 481.06 601.59 ZM 494.87 545.93 C477.94,543.44 459.93,533.96 446.13,520.25 C433.04,507.25 424.30,491.97 419.99,474.56 C418.03,466.63 417.83,463.79 418.26,449.56 C418.68,435.49 419.07,432.57 421.39,426.00 C432.13,395.56 455.28,373.48 485.50,364.83 C492.37,362.86 495.84,362.54 510.00,362.52 C524.42,362.50 527.57,362.80 535.00,364.90 C546.15,368.04 557.68,373.88 566.43,380.79 C584.25,394.88 593.55,409.15 600.14,432.50 C603.42,444.11 603.41,464.78 600.13,477.50 C592.15,508.46 568.87,532.94 538.00,542.85 C525.59,546.83 509.05,548.01 494.87,545.93 ZM 527.55 528.99 C531.88,527.88 535.85,526.55 536.37,526.03 C536.89,525.51 537.21,521.78 537.10,517.73 C536.67,503.13 542.29,489.64 553.45,478.42 C560.41,471.43 572.63,464.00 577.16,464.00 C580.39,464.00 581.30,459.56 580.08,449.89 C576.00,417.68 552.83,394.72 520.75,391.09 C512.35,390.14 497.41,391.17 494.13,392.93 C493.20,393.43 491.48,397.10 490.27,401.16 C485.55,417.02 473.38,431.13 457.74,438.88 C453.17,441.15 448.54,443.01 447.46,443.02 C443.66,443.04 442.80,444.63 441.72,453.48 C440.44,464.04 441.73,475.54 445.35,485.97 C452.66,506.96 472.64,524.68 494.43,529.47 C503.90,531.55 518.36,531.34 527.55,528.99 ZM 559.32 511.29 C565.86,504.86 569.49,499.97 573.25,492.50 C575.56,487.92 580.00,475.02 580.00,472.89 C580.00,469.41 567.27,476.40 559.21,484.31 C553.91,489.51 549.41,496.44 547.08,503.00 C545.53,507.35 543.98,518.78 544.69,520.62 C545.46,522.63 552.10,518.40 559.32,511.29 ZM 436.18 459.50 C435.30,445.86 443.51,423.06 453.88,410.38 C463.41,398.72 480.17,388.54 495.00,385.41 C505.45,383.20 526.10,383.92 534.64,386.78 C554.00,393.28 569.81,406.89 578.47,424.50 C583.76,435.25 585.84,442.97 586.79,455.31 L 587.50 464.50 L 592.50 464.50 L 597.50 464.50 L 597.50 453.00 C597.50,439.66 595.76,431.86 589.97,419.33 C584.76,408.04 580.98,402.75 571.66,393.75 C554.39,377.08 536.46,370.00 511.50,370.00 C497.90,370.00 487.34,371.93 477.50,376.21 C445.57,390.12 425.10,420.68 425.02,454.58 C425.01,459.58 425.32,463.99 425.71,464.38 C426.10,464.77 428.69,464.96 431.46,464.79 L 436.50 464.50 L 436.18 459.50 ZM 456.02 431.25 C465.19,425.94 475.61,415.08 480.49,405.77 C482.69,401.58 484.17,397.84 483.79,397.46 C481.73,395.40 469.83,402.62 461.23,411.13 C455.65,416.66 447.00,430.09 447.00,433.23 C447.00,435.83 448.80,435.43 456.02,431.25 ZM 399.78 302.04 C393.28,300.01 388.12,293.37 388.04,286.96 C387.98,281.84 391.82,275.00 395.98,272.82 C401.24,270.07 408.66,270.40 413.36,273.60 C422.38,279.73 422.27,293.54 413.15,299.48 C408.91,302.25 403.66,303.25 399.78,302.04 ZM 488.00 248.20 C488.00,243.14 488.08,243.00 490.88,243.00 C492.93,243.00 493.92,243.58 494.29,245.00 C494.58,246.10 495.35,247.00 496.00,247.00 C496.65,247.00 497.42,246.10 497.71,245.00 C498.20,243.12 499.07,243.00 512.51,243.00 C524.28,243.00 526.89,243.26 527.36,244.50 C528.12,246.49 531.00,246.43 531.00,244.43 C531.00,243.31 531.79,242.96 533.75,243.18 C536.27,243.47 536.53,243.89 536.81,248.32 C537.10,252.85 537.00,253.07 535.12,252.07 C532.20,250.50 490.78,250.62 489.20,252.20 C488.27,253.13 488.00,252.24 488.00,248.20 ZM 312.12 772.37 C308.44,769.79 307.00,764.96 307.00,755.21 C307.00,744.63 308.96,738.05 313.17,734.51 C319.04,729.57 324.48,730.21 327.63,736.21 C330.15,740.99 330.68,755.14 328.62,762.24 C325.85,771.77 318.07,776.54 312.12,772.37 ZM 566.00 726.68 C566.00,716.97 567.02,711.21 568.87,710.50 C569.75,710.16 573.18,709.63 576.49,709.32 C584.54,708.57 587.05,710.46 587.75,717.79 C588.22,722.63 588.04,723.16 584.81,726.39 C581.54,729.66 578.19,731.01 569.75,732.45 L 566.00 733.09 L 566.00 726.68 ZM 567.59 686.87 C567.97,681.72 568.43,677.32 568.62,677.10 C568.81,676.88 572.42,676.48 576.64,676.21 C585.65,675.63 587.00,676.61 587.00,683.74 C587.00,690.67 583.40,693.28 570.71,695.56 L 566.91 696.24 L 567.59 686.87 ZM 633.35 720.53 C629.16,717.60 627.64,702.94 630.52,693.26 C632.48,686.64 636.82,682.77 641.79,683.20 C646.34,683.59 648.67,686.74 650.07,694.38 C651.37,701.48 650.54,708.99 647.81,714.78 C644.78,721.22 638.11,723.87 633.35,720.53 ZM 695.03 709.03 C692.25,706.25 691.49,702.76 691.55,693.00 C691.64,679.60 696.24,672.00 704.28,672.00 C714.71,672.00 715.94,702.33 705.79,709.43 C702.67,711.62 697.42,711.42 695.03,709.03 Z" fill="rgb(254,254,254)"/>
</g>
</svg>